#!OML:ASF E:\Steps\Project 1\Capture day 1\Session 2\Subject.ASF
:FULLY-SPECIFIED
:DEGREES
619
root 12.1523 18.0199 16.7747 -153.959 1.0057 176.458
lowerback -27.8874 -2.89857 -6.96972
upperback -1.14164 -0.866816 -0.501756
thorax 13.6526 -0.535874 2.99586
lowerneck 0.499463 -2.47517 0.777459
upperneck 2.35101 -3.29363 1.68553
head 0.647447 -1.60995 0.370041
rclavicle -7.20594e-015 -3.00165e-014
rhumerus -38.1406 -14.3612 -78.1898
rradius 32.7886
rwrist -5.24321
rhand -7.66306 -52.0379
rfingers 7.12502
rthumb 18.233 -81.2033
lclavicle -7.20594e-015 -3.00165e-014
lhumerus -31.0535 -2.99102 83.9881
lradius 36.8476
lwrist -0.0908418
lhand -22.7952 -13.5314
lfingers 7.12502
lthumb 3.64083 16.4172
rfemur 157.93 -183.071 -159.652
rtibia 6.3682
rfoot -17.9908 -3.54026
rtoes -20.1682
lfemur -22.6325 -6.25298 -23.9431
ltibia 8.02915
lfoot -6.47777 -6.34939
ltoes -34.8373
620
root 12.1496 18.0204 16.7682 -154.03 1.05585 176.35
lowerback -27.8551 -2.95806 -7.12208
upperback -1.14409 -0.897054 -0.505779
thorax 13.6388 -0.55751 3.06287
lowerneck 0.422068 -2.41515 0.804421
upperneck 2.31291 -3.21516 1.62321
head 0.646499 -1.57192 0.346378
rclavicle -8.10048e-015 -7.95139e-015
rhumerus -38.1504 -14.428 -78.0672
rradius 32.4951
rwrist -5.05827
rhand -7.63739 -52.0904
rfingers 7.12502
rthumb 18.2577 -81.2535
lclavicle -8.10048e-015 -7.95139e-015
lhumerus -31.1335 -2.98041 83.9923
lradius 36.4347
lwrist 0.5989
lhand -22.8099 -15.0713
lfingers 7.12502
lthumb 3.62668 14.8776
rfemur 158.008 -183.118 -159.819
rtibia 6.39134
rfoot -19.0146 -3.50242
rtoes -16.7767
lfemur -22.4982 -6.35616 -24.0687
ltibia 7.93759
lfoot -6.98514 -6.30905
ltoes -38.026
621
root 12.1432 18.0186 16.7625 -154.051 1.03572 176.374
lowerback -27.9433 -2.99355 -7.08457
upperback -1.10667 -0.954069 -0.477234
thorax 13.729 -0.586851 3.05015
lowerneck 0.393933 -2.32904 0.752098
upperneck 2.08635 -3.10168 1.62718
head 0.582198 -1.51965 0.357629
rclavicle 8.44835e-015 -2.50469e-014
rhumerus -38.0837 -14.4904 -77.9846
rradius 32.2181
rwrist -4.89096
rhand -8.30864 -50.6488
rfingers 7.12502
rthumb 17.6118 -79.8711
lclavicle 8.44835e-015 -2.50469e-014
lhumerus -31.122 -2.71007 83.9143
lradius 35.8875
lwrist 0.54649
lhand -23.2237 -15.1991
lfingers 7.12502
lthumb 3.22702 14.7562
rfemur 158.066 -182.928 -159.772
rtibia 6.38111
rfoot -18.0391 -3.34354
rtoes -19.8555
lfemur -22.4217 -6.43534 -24.0633
ltibia 7.88582
lfoot -6.32693 -6.24916
ltoes -33.3643
622
root 12.1384 18.0163 16.7611 -153.98 1.07243 176.467
lowerback -28.12 -2.98647 -6.97337
upperback -1.06524 -0.967453 -0.460743
thorax 13.8597 -0.591974 2.99972
lowerneck 0.38686 -2.2507 0.640512
upperneck 1.88043 -2.99842 1.78993
head 0.524661 -1.47061 0.426658
rclavicle -6.21202e-015 -1.0138e-014
rhumerus -38.0262 -14.5046 -77.9757
rradius 32.0944
rwrist -4.92689
rhand -8.57965 -49.5395
rfingers 7.12502
rthumb 17.351 -78.785
lclavicle -6.21202e-015 -1.0138e-014
lhumerus -30.9486 -2.43638 83.7728
lradius 35.3043
lwrist 0.013872
lhand -23.2137 -13.4692
lfingers 7.12502
lthumb 3.23671 16.4859
rfemur 157.927 -182.991 -159.701
rtibia 6.50607
rfoot -19.1079 -3.26428
rtoes -16.562
lfemur -22.4984 -6.39493 -23.9822
ltibia 7.91023
lfoot -6.90133 -6.32156
ltoes -37.2729
623
root 12.1355 18.0143 16.7628 -153.877 1.1091 176.519
lowerback -28.2181 -3.005 -6.92497
upperback -1.09409 -0.994932 -0.44587
thorax 13.8749 -0.598315 2.97818
lowerneck 0.414364 -2.2304 0.556864
upperneck 1.7959 -2.97125 1.9606
head 0.49857 -1.45724 0.493048
rclavicle 1.799e-014 -2.64384e-014
rhumerus -38.0625 -14.4348 -77.9726
rradius 32.0251
rwrist -5.08002
rhand -8.55609 -49.8691
rfingers 7.12502
rthumb 17.3737 -79.1126
lclavicle 1.799e-014 -2.64384e-014
lhumerus -30.8693 -2.12928 83.6093
lradius 34.8521
lwrist 0.0327953
lhand -23.0419 -13.1424
lfingers 7.12502
lthumb 3.4026 16.8102
rfemur 157.597 -183.016 -159.666
rtibia 6.90218
rfoot -18.2909 -3.32808
rtoes -19.6897
lfemur -22.6625 -6.29375 -23.9373
ltibia 7.99869
lfoot -6.38598 -6.34918
ltoes -32.8714
624
root 12.1336 18.0139 16.7628 -153.834 1.02881 176.542
lowerback -28.2965 -3.07095 -6.92803
upperback -1.08266 -1.0778 -0.408653
thorax 13.9337 -0.638306 2.98707
lowerneck 0.427778 -2.21358 0.489578
upperneck 1.59044 -2.94816 2.0489
head 0.436254 -1.44865 0.532262
rclavicle -1.2424e-015 5.96354e-015
rhumerus -38.0657 -14.4532 -77.937
rradius 31.949
rwrist -5.07032
rhand -8.64368 -50.6201
rfingers 7.12502
rthumb 17.2894 -79.8711
lclavicle -1.2424e-015 5.96354e-015
lhumerus -30.8515 -1.82569 83.4829
lradius 34.4311
lwrist -0.113863
lhand -22.9734 -12.9078
lfingers 7.12502
lthumb 3.46879 17.0437
rfemur 157.707 -183.113 -159.657
rtibia 6.61337
rfoot -19.57 -3.32984
rtoes -14.8715
lfemur -22.7524 -6.23713 -23.904
ltibia 8.0694
lfoot -6.61172 -6.45284
ltoes -34.6353
625
root 12.1307 18.0142 16.763 -153.784 0.987196 176.533
lowerback -28.5028 -3.09772 -6.94352
upperback -0.979144 -1.09309 -0.407117
thorax 14.1505 -0.657644 2.98656
lowerneck 0.353023 -2.19161 0.420184
upperneck 1.34745 -2.9192 2.13585
head 0.376981 -1.43739 0.570708
rclavicle 2.13694e-015 -1.47101e-014
rhumerus -37.9399 -14.9466 -77.7453
rradius 31.7495
rwrist -4.70133
rhand -8.4512 -50.3923
rfingers 7.12502
rthumb 17.4747 -79.6268
lclavicle 2.13694e-015 -1.47101e-014
lhumerus -30.6594 -1.64623 83.4233
lradius 33.7841
lwrist -0.29192
lhand -23.2814 -13.4295
lfingers 7.12502
lthumb 3.17131 16.5266
rfemur 157.61 -182.973 -159.643
rtibia 6.71019
rfoot -20.1187 -3.18243
rtoes -13.2222
lfemur -22.8297 -6.18004 -23.9311
ltibia 8.11246
lfoot -6.95373 -6.60631
ltoes -36.8189
626
root 12.128 18.0127 16.7643 -153.692 1.08346 176.469
lowerback -28.4872 -3.08808 -6.96372
upperback -1.07873 -1.04968 -0.480465
thorax 14.0224 -0.623246 2.93656
lowerneck 0.271144 -2.19653 0.432556
upperneck 1.52896 -2.92846 2.18471
head 0.446356 -1.43835 0.581679
rclavicle -8.39865e-015 1.31198e-014
rhumerus -38.1056 -15.5459 -77.464
rradius 31.4355
rwrist -4.15151
rhand -8.4608 -49.9713
rfingers 7.12502
rthumb 17.4654 -79.2067
lclavicle -8.39865e-015 1.31198e-014
lhumerus -30.7221 -1.44018 83.2429
lradius 33.196
lwrist -0.356004
lhand -22.9565 -13.4156
lfingers 7.12502
lthumb 3.48508 16.5356
rfemur 157.386 -182.762 -159.707
rtibia 6.90789
rfoot -19.7629 -3.01315
rtoes -14.6922
lfemur -22.9353 -6.11439 -24.047
ltibia 8.12444
lfoot -6.76172 -6.65217
ltoes -35.2079
627
root 12.1251 18.0106 16.7596 -153.728 1.2077 176.449
lowerback -28.5208 -3.06997 -6.97438
upperback -1.07879 -1.01094 -0.520536
thorax 14.0331 -0.604513 2.91332
lowerneck 0.178218 -2.23748 0.510171
upperneck 1.64566 -2.98547 2.11471
head 0.495217 -1.46489 0.545722
rclavicle 1.04362e-014 1.74931e-014
rhumerus -38.1942 -15.6981 -77.356
rradius 31.2256
rwrist -3.96448
rhand -8.74915 -49.7281
rfingers 7.12502
rthumb 17.1879 -78.9879
lclavicle 1.04362e-014 1.74931e-014
lhumerus -30.6968 -1.03657 82.9557
lradius 32.912
lwrist -0.293549
lhand -21.2647 -12.128
lfingers 7.12502
lthumb 5.11881 17.7902
rfemur 157.416 -182.774 -159.771
rtibia 6.92223
rfoot -18.4388 -3.05662
rtoes -19.0265
lfemur -22.8296 -6.12076 -24.11
ltibia 8.05935
lfoot -6.60997 -6.55069
ltoes -33.7424
628
root 12.1224 18.0102 16.7549 -153.803 1.26109 176.502
lowerback -28.5039 -3.05781 -6.91502
upperback -1.05149 -1.02019 -0.525754
thorax 14.057 -0.60872 2.87181
lowerneck 0.0979138 -2.28882 0.549715
upperneck 1.49794 -3.0543 2.12846
head 0.463579 -1.50084 0.543021
rclavicle 6.60959e-015 -3.37934e-015
rhumerus -38.2971 -15.3258 -77.5284
rradius 31.3264
rwrist -4.49951
rhand -8.82517 -49.5745
rfingers 7.12502
rthumb 17.1147 -78.8407
lclavicle 6.60959e-015 -3.37934e-015
lhumerus -30.7733 -0.88062 82.83
lradius 32.1724
lwrist -1.23381
lhand -20.3014 -8.33704
lfingers 7.12502
lthumb 6.04887 21.5566
rfemur 157.506 -183.097 -159.79
rtibia 6.93928
rfoot -19.3869 -3.22329
rtoes -16.5985
lfemur -22.6899 -6.11014 -24.0749
ltibia 8.00705
lfoot -7.3399 -6.49723
ltoes -38.6733
629
root 12.1219 18.0104 16.7571 -153.802 1.2461 176.519
lowerback -28.457 -3.09677 -6.92256
upperback -1.05626 -1.07528 -0.518065
thorax 14.0353 -0.633809 2.86369
lowerneck 0.0107518 -2.31325 0.567068
upperneck 1.42142 -3.08773 2.18827
head 0.455686 -1.51753 0.557678
rclavicle 1.19271e-014 7.55382e-015
rhumerus -38.3916 -15.0492 -77.6901
rradius 31.427
rwrist -4.83437
rhand -8.68403 -50.0892
rfingers 7.12502
rthumb 17.2506 -79.3435
lclavicle 1.19271e-014 7.55382e-015
lhumerus -30.7848 -0.602649 82.6356
lradius 31.5181
lwrist -1.40597
lhand -22.4451 -13.5857
lfingers 7.12502
lthumb 3.97895 16.3568
rfemur 157.468 -183.452 -159.829
rtibia 7.01286
rfoot -18.3642 -3.68838
rtoes -21.1588
lfemur -22.7367 -5.97978 -24.0739
ltibia 8.06739
lfoot -6.66709 -6.5613
ltoes -34.5239
630
root 12.1206 18.0104 16.7602 -153.811 1.24644 176.513
lowerback -28.4834 -3.10431 -6.96821
upperback -1.01843 -1.06667 -0.537468
thorax 14.0903 -0.636011 2.86965
lowerneck -0.131624 -2.33242 0.745975
upperneck 1.56883 -3.11711 2.0811
head 0.519281 -1.5291 0.493132
rclavicle -1.63997e-015 -4.69132e-014
rhumerus -38.4092 -15.2643 -77.6512
rradius 31.3002
rwrist -4.65927
rhand -8.58672 -50.6706
rfingers 7.12502
rthumb 17.3442 -79.9168
lclavicle -1.63997e-015 -4.69132e-014
lhumerus -30.6628 -0.397943 82.4122
lradius 30.904
lwrist -1.30124
lhand -20.435 -9.43556
lfingers 7.12502
lthumb 5.91982 20.4617
rfemur 157.46 -183.586 -159.86
rtibia 7.01988
rfoot -19.4393 -3.65375
rtoes -16.499
lfemur -22.7981 -5.89766 -24.0808
ltibia 8.1463
lfoot -7.17506 -6.76319
ltoes -36.7296
631
root 12.1185 18.0114 16.7614 -153.838 1.27124 176.577
lowerback -28.6114 -3.07183 -6.99572
upperback -0.901528 -1.01371 -0.530324
thorax 14.2799 -0.628268 2.90902
lowerneck -0.324237 -2.3549 0.939264
upperneck 1.59461 -3.15135 1.98944
head 0.554125 -1.54448 0.431122
rclavicle 1.51573e-014 2.00773e-014
rhumerus -38.2834 -15.672 -77.535
rradius 31.0717
rwrist -4.49873
rhand -8.74475 -50.4486
rfingers 7.12502
rthumb 17.1921 -79.7081
lclavicle 1.51573e-014 2.00773e-014
lhumerus -30.5001 -0.329429 82.3389
lradius 30.3142
lwrist -0.950494
lhand -22.0972 -11.7305
lfingers 7.12502
lthumb 4.31487 18.2055
rfemur 157.465 -183.578 -159.793
rtibia 7.04247
rfoot -18.5232 -3.60715
rtoes -18.472
lfemur -22.7877 -5.94181 -23.9765
ltibia 8.13133
lfoot -6.41998 -6.72596
ltoes -30.8546
632
root 12.1173 18.0125 16.76 -153.895 1.31326 176.612
lowerback -28.6755 -3.08009 -7.0706
upperback -0.805513 -1.00951 -0.492512
thorax 14.4221 -0.644692 2.98968
lowerneck -0.508415 -2.39901 1.02641
upperneck 1.57753 -3.21454 1.93367
head 0.57712 -1.5757 0.397476
rclavicle -1.39149e-015 9.54166e-015
rhumerus -38.1267 -16.082 -77.3417
rradius 30.7684
rwrist -4.13079
rhand -8.8854 -50.2897
rfingers 7.12502
rthumb 17.0568 -79.5609
lclavicle -1.39149e-015 9.54166e-015
lhumerus -30.4385 0.0288881 82.2442
lradius 29.7094
lwrist -0.831391
lhand -22.8293 -12.4505
lfingers 7.12502
lthumb 3.60791 17.4987
rfemur 157.497 -183.665 -159.774
rtibia 7.11103
rfoot -19.5061 -3.59874
rtoes -15.4986
lfemur -22.6955 -5.99402 -23.9293
ltibia 8.04006
lfoot -7.01118 -6.72797
ltoes -34.4238
633
root 12.115 18.0122 16.7593 -153.929 1.36098 176.588
lowerback -28.6589 -3.08886 -7.13266
upperback -0.800993 -0.999288 -0.508552
thorax 14.4187 -0.643688 3.00992
lowerneck -0.577996 -2.45232 1.10755
upperneck 1.65598 -3.28835 1.86411
head 0.61027 -1.61137 0.361308
rclavicle -8.44835e-015 -8.74653e-015
rhumerus -38.1342 -16.494 -77.1321
rradius 30.415
rwrist -3.66323
rhand -8.78678 -50.2191
rfingers 7.12502
rthumb 17.1517 -79.4821
lclavicle -8.44835e-015 -8.74653e-015
lhumerus -30.3943 0.566948 81.983
lradius 28.9273
lwrist -1.04633
lhand -22.9937 -12.5629
lfingers 7.12502
lthumb 3.4492 17.3889
rfemur 157.524 -183.861 -159.852
rtibia 7.13769
rfoot -18.6065 -3.84006
rtoes -18.804
lfemur -22.6334 -6.01569 -23.974
ltibia 7.98708
lfoot -6.24698 -6.66505
ltoes -28.9316
